<svg xmlns="http://www.w3.org/2000/svg" viewBox="0 0 11.04 11.04"><defs><style>.cls-1{fill:none;}</style></defs><title>15crown5</title><g id="Layer_2" data-name="Layer 2"><g id="Export"><circle class="cls-1" cx="5.52" cy="5.52" r="5.52"/><path d="M7.48.85,9.17,2,9,4.09v.18l.12.13,1.45,1.51-.57,2L7.88,8.4l-.17,0-.08.15L6.54,10.48h-2L3.44,8.67l-.09-.15-.17,0L1.13,8.07.48,6.12l1.4-1.58L2,4.41l0-.18-.24-2.1L3.39.91l1.89.83.17.07.16-.08L7.48.85m0-.47-2.07,1L3.34.45,1.32,2l.26,2.32L0,6l.8,2.38,2.27.46,1.15,2H6.77L8,8.79l2.34-.57L11,5.8,9.4,4.13l.19-2.32L7.51.38Z"/></g></g></svg>