<svg xmlns="http://www.w3.org/2000/svg" viewBox="0 0 11.04 11.04"><defs><style>.cls-1{fill:none;}</style></defs><title>18crown6</title><g id="Layer_2" data-name="Layer 2"><g id="Export"><circle class="cls-1" cx="5.52" cy="5.52" r="5.52"/><path d="M7.28.77l1.47.85v2l.2.11,1.57.91V6.39L9,7.28l-.2.11v2l-1.47.86-1.58-.9-.2-.12-.2.12-1.57.9L2.28,9.42v-2l-.2-.12L.52,6.37V4.67l1.55-.89.2-.12v-2L3.73.78l1.58.9.2.11.2-.12L7.28.77m0-.47-1.77,1L3.73.32,1.86,1.41v2l-1.75,1V6.6l1.76,1v2l1.87,1.09,1.77-1,1.78,1L9.17,9.64v-2l1.75-1V4.45l-1.77-1v-2L7.27.3Z"/></g></g></svg>