<?xml version="1.0" encoding="UTF-8"?>
<svg width="11px" height="11px" viewBox="0 0 11 11" version="1.1" xmlns="http://www.w3.org/2000/svg" xmlns:xlink="http://www.w3.org/1999/xlink">
    <!-- Generator: Sketch 50.2 (55047) - http://www.bohemiancoding.com/sketch -->
    <title>benzene</title>
    <desc>Created with Sketch.</desc>
    <defs></defs>
    <g id="🔵-Chemical-Drawer" stroke="none" stroke-width="1" fill="none" fill-rule="evenodd">
        <path d="M5.6855,-0.0003 L0.9055,2.7597 L0.9055,8.2797 L5.6855,11.0397 L10.4655,8.2797 L10.4655,2.7597 L5.6855,-0.0003 Z M5.6855,0.4617 L10.0655,2.9907 L10.0655,8.0487 L5.6855,10.5777 L1.3055,8.0487 L1.3055,2.9907 L5.6855,0.4617 Z M2.2007,3.6233 L5.7857,1.5533 L5.5857,1.2063 L2.0007,3.2763 L2.2007,3.6233 Z M5.5854,9.8327 L5.7854,9.4857 L2.2004,7.4157 L2.0004,7.7627 L5.5854,9.8327 Z M9.071,7.5895 L9.471,7.5895 L9.471,3.4495 L9.071,3.4495 L9.071,7.5895 Z" id="benzene" fill="#000000"></path>
    </g>
</svg>