<?xml version="1.0" encoding="UTF-8"?>
<svg width="10px" height="9px" viewBox="0 0 10 9" version="1.1" xmlns="http://www.w3.org/2000/svg" xmlns:xlink="http://www.w3.org/1999/xlink">
    <!-- Generator: Sketch 50.2 (55047) - http://www.bohemiancoding.com/sketch -->
    <title>charge-increase</title>
    <desc>Created with Sketch.</desc>
    <defs></defs>
    <g id="🔵-Chemical-Drawer" stroke="none" stroke-width="1" fill="none" fill-rule="evenodd">
        <path d="M3.8521,4.9475 L4.0041,4.4185 C4.1491,3.9365 4.2861,3.4385 4.4081,2.9715 C4.5401,3.4635 4.6741,3.9535 4.8141,4.4215 L4.9651,4.9475 L3.8521,4.9475 Z M5.4031,0.6105 L5.1941,0.6105 L3.6651,0.6105 L3.4561,0.6105 L3.3921,0.8095 L0.9951,8.1615 L0.8721,8.5385 L1.2691,8.5385 L2.5991,8.5385 L2.8161,8.5385 L2.8761,8.3305 L3.3911,6.5465 L5.4231,6.5465 L5.9341,8.3295 L5.9931,8.5385 L6.2101,8.5385 L7.5911,8.5385 L7.9881,8.5385 L7.8651,8.1615 L5.4681,0.8095 L5.4031,0.6105 Z M3.4691,5.2355 L5.3471,5.2355 L5.0901,4.3385 C4.8561,3.5605 4.6411,2.7215 4.4251,1.9145 L4.3801,1.9145 C4.1781,2.7285 3.9621,3.5605 3.7281,4.3385 L3.4691,5.2355 Z M5.1941,0.8985 L7.5911,8.2505 L6.2101,8.2505 L5.6401,6.2595 L3.1741,6.2595 L2.5991,8.2505 L1.2691,8.2505 L3.6651,0.8985 L5.1941,0.8985 Z M7.6069,2.3742 L6.5859,2.3742 L6.5859,1.6692 L7.6069,1.6692 L7.6069,0.6132 L8.3349,0.6132 L8.3349,1.6692 L9.3569,1.6692 L9.3569,2.3742 L8.3349,2.3742 L8.3349,3.4312 L7.6069,3.4312 L7.6069,2.3742 Z" id="charge-increase" fill="#000000"></path>
    </g>
</svg>