<?xml version="1.0" encoding="UTF-8"?>
<svg width="9px" height="9px" viewBox="0 0 9 9" version="1.1" xmlns="http://www.w3.org/2000/svg" xmlns:xlink="http://www.w3.org/1999/xlink">
    <!-- Generator: Sketch 50.2 (55047) - http://www.bohemiancoding.com/sketch -->
    <title>charge-decrease</title>
    <desc>Created with Sketch.</desc>
    <defs></defs>
    <g id="🔵-Chemical-Drawer" stroke="none" stroke-width="1" fill="none" fill-rule="evenodd">
        <path d="M3.0239,4.9475 L3.1769,4.4185 C3.3219,3.9365 3.4589,3.4385 3.5809,2.9715 C3.7119,3.4635 3.8459,3.9535 3.9869,4.4215 L4.1369,4.9475 L3.0239,4.9475 Z M4.5749,0.6105 L4.3659,0.6105 L2.8369,0.6105 L2.6279,0.6105 L2.5639,0.8095 L0.1669,8.1615 L0.0439,8.5385 L0.4409,8.5385 L1.7719,8.5385 L1.9879,8.5385 L2.0479,8.3305 L2.5629,6.5465 L4.5949,6.5465 L5.1059,8.3295 L5.1659,8.5385 L5.3829,8.5385 L6.7629,8.5385 L7.1599,8.5385 L7.0369,8.1615 L4.6399,0.8095 L4.5749,0.6105 Z M2.6409,5.2355 L4.5199,5.2355 L4.2629,4.3385 C4.0289,3.5605 3.8129,2.7215 3.5969,1.9145 L3.5519,1.9145 C3.3499,2.7285 3.1339,3.5605 2.8999,4.3385 L2.6409,5.2355 Z M4.3659,0.8985 L6.7629,8.2505 L5.3829,8.2505 L4.8129,6.2595 L2.3459,6.2595 L1.7719,8.2505 L0.4409,8.2505 L2.8369,0.8985 L4.3659,0.8985 Z M6.051,2.3385 L6.051,1.7045 L8.353,1.7045 L8.353,2.3385 L6.051,2.3385 Z" id="charge-decrease" fill="#000000"></path>
    </g>
</svg>