<?xml version="1.0" encoding="UTF-8"?>
<svg width="10px" height="9px" viewBox="0 0 10 9" version="1.1" xmlns="http://www.w3.org/2000/svg" xmlns:xlink="http://www.w3.org/1999/xlink">
    <!-- Generator: Sketch 50.2 (55047) - http://www.bohemiancoding.com/sketch -->
    <title>wand</title>
    <desc>Created with Sketch.</desc>
    <defs></defs>
    <g id="🔵-Chemical-Drawer" stroke="none" stroke-width="1" fill="none" fill-rule="evenodd">
        <path d="M1.7705,0.532900001 L2.1773,0.1258 L2.1777,0.1257 L9.5127,7.4607 L8.1557,8.8177 L0.8207,1.4827 L1.7705,0.532900001 Z M7.31747195,5.68947195 L6.38412805,6.62212805 L8.1557,8.3937 L9.0887,7.4607 L7.31747195,5.68947195 Z M3.8877,5.6692 L4.3467,6.8342 L5.5117,7.2932 L4.3467,7.7522 L3.8877,8.9172 L3.4287,7.7522 L2.2637,7.2932 L3.4287,6.8342 L3.8877,5.6692 Z M5.6465,7.7248 L5.8295,8.1878 L6.2925,8.3708 L5.8295,8.5538 L5.6465,9.0168 L5.4635,8.5538 L5.0005,8.3708 L5.4635,8.1878 L5.6465,7.7248 Z M2.1318,7.7248 L2.3148,8.1878 L2.7778,8.3708 L2.3148,8.5538 L2.1318,9.0168 L1.9488,8.5538 L1.4858,8.3708 L1.9488,8.1878 L2.1318,7.7248 Z M9.1489,4.259 L9.3319,4.722 L9.7949,4.905 L9.3319,5.088 L9.1489,5.552 L8.9659,5.088 L8.5029,4.905 L8.9659,4.722 L9.1489,4.259 Z" id="wand" fill="#000000"></path>
    </g>
</svg>