<?xml version="1.0" encoding="UTF-8"?>
<svg width="8px" height="9px" viewBox="0 0 8 9" version="1.1" xmlns="http://www.w3.org/2000/svg" xmlns:xlink="http://www.w3.org/1999/xlink">
    <!-- Generator: Sketch 50.2 (55047) - http://www.bohemiancoding.com/sketch -->
    <title>cut</title>
    <desc>Created with Sketch.</desc>
    <defs></defs>
    <g id="🔵-Chemical-Drawer" stroke="none" stroke-width="1" fill="none" fill-rule="evenodd">
        <path d="M3.1045,7.5813 C2.6625,8.2253 1.8455,8.4603 1.2235,8.1013 C0.8015,7.8573 0.5705,7.4003 0.5705,6.9113 C0.5705,6.6383 0.6435,6.3543 0.7945,6.0943 C1.1815,5.4223 1.9535,5.1293 2.5875,5.3843 C2.6085,5.3963 2.6325,5.4033 2.6585,5.4033 C2.7205,5.4033 2.7725,5.3653 2.7945,5.3113 L5.6765,0.3213 L6.0105,1.5553 L4.3455,4.4863 L4.8225,5.3113 C4.8445,5.3653 4.8965,5.4033 4.9585,5.4033 C4.9845,5.4033 5.0085,5.3963 5.0295,5.3843 C5.6635,5.1293 6.4365,5.4223 6.8235,6.0943 C6.9745,6.3543 7.0465,6.6383 7.0465,6.9113 C7.0465,7.4003 6.8155,7.8573 6.3945,8.1013 C5.7715,8.4603 4.9555,8.2253 4.5135,7.5813 C4.4655,7.5143 4.4165,7.4283 4.3675,7.3283 C4.3645,7.3243 4.3615,7.3193 4.3605,7.3143 C4.2815,7.1513 4.1975,6.9453 4.1625,6.7193 C4.0935,6.2823 4.0505,6.0113 3.9935,5.7573 L3.8085,5.4323 L3.6245,5.7573 C3.5675,6.0113 3.5235,6.2823 3.4555,6.7193 C3.4195,6.9453 3.3355,7.1513 3.2565,7.3143 C3.2545,7.3193 3.2515,7.3233 3.2505,7.3283 C3.2015,7.4283 3.1515,7.5143 3.1045,7.5813 Z M5.1765,5.9903 C4.9585,6.1153 4.8285,6.3623 4.8285,6.6503 C4.8285,6.8263 4.8775,7.0043 4.9695,7.1643 C5.0975,7.3853 5.2915,7.5473 5.5165,7.6203 C5.7195,7.6863 5.9225,7.6693 6.0895,7.5723 C6.3075,7.4473 6.4375,7.2003 6.4375,6.9113 C6.4375,6.7353 6.3885,6.5593 6.2955,6.3983 C6.1675,6.1773 5.9735,6.0153 5.7485,5.9423 C5.5455,5.8763 5.3425,5.8933 5.1765,5.9903 Z M3.8445,4.7323 C3.9765,4.7323 4.0835,4.6263 4.0835,4.4953 C4.0835,4.3633 3.9765,4.2563 3.8445,4.2563 C3.7125,4.2563 3.6055,4.3633 3.6055,4.4953 C3.6055,4.6263 3.7125,4.7323 3.8445,4.7323 Z M2.1005,7.6203 C2.3255,7.5473 2.5195,7.3863 2.6475,7.1643 C2.7395,7.0043 2.7895,6.8263 2.7895,6.6503 C2.7895,6.3623 2.6585,6.1153 2.4415,5.9903 C2.2745,5.8943 2.0715,5.8763 1.8685,5.9423 C1.6435,6.0153 1.4495,6.1773 1.3215,6.3983 C1.2295,6.5593 1.1805,6.7353 1.1805,6.9123 C1.1805,7.2003 1.3095,7.4473 1.5275,7.5723 C1.6945,7.6693 1.8975,7.6853 2.1005,7.6203 Z M3.4565,2.9453 L2.9225,3.8713 L1.6065,1.5553 L1.9405,0.3213 L3.4565,2.9453 Z" id="cut" fill="#000000"></path>
    </g>
</svg>