<svg xmlns="http://www.w3.org/2000/svg" viewBox="0 0 11.04 11.04"><defs><style>.cls-1{fill:none;}</style></defs><title>diradical (triplet)</title><g id="Layer_2" data-name="Layer 2"><g id="Export"><circle class="cls-1" cx="5.52" cy="5.52" r="5.52"/><path d="M8.42,10.39H6.9L6.4,8.66H4.48L4,10.39H2.51L4.69,3.7H6.23Zm-1.3-.3H8L6,4H4.9l-2,6.09h.84l.5-1.73H6.63ZM6.46,7.77h-2l.28-1c.21-.73.41-1.5.56-2.1l0-.12h.27l.15.56c.15.55.3,1.12.46,1.66Zm-1.64-.3H6.06l-.17-.59c-.16-.52-.31-1.08-.45-1.62-.13.5-.28,1.08-.45,1.62Z"/><polygon points="6.76 2.1 7.05 1.29 7.07 1.29 7.35 2.1 7.69 3 8.27 3 7.35 0.66 6.77 0.66 5.85 3 6.43 3 6.76 2.1"/><polygon points="3.69 2.1 3.97 1.29 3.99 1.29 4.28 2.1 4.61 3 5.19 3 4.27 0.66 3.69 0.66 2.77 3 3.35 3 3.69 2.1"/></g></g></svg>