<svg xmlns="http://www.w3.org/2000/svg" viewBox="0 0 11.04 11.04"><defs><style>.cls-1{fill:none;}</style></defs><title>diradical (singlet)</title><g id="Layer_2" data-name="Layer 2"><g id="Export"><circle class="cls-1" cx="5.52" cy="5.52" r="5.52"/><path d="M8.46,10.39H6.94l-.5-1.73H4.52L4,10.39H2.55L4.73,3.7H6.28Zm-1.3-.3H8L6.06,4H5L3,10.09H3.8l.5-1.73H6.67ZM6.5,7.77h-2l.28-1c.22-.73.41-1.51.56-2.1l0-.12h.27l.15.56c.15.55.3,1.12.46,1.66Zm-1.63-.3H6.1l-.17-.59c-.15-.52-.3-1.08-.45-1.62-.13.5-.28,1.08-.44,1.62Z"/><path d="M4,3A1.17,1.17,0,1,0,4,.66,1.17,1.17,0,0,0,4,3Z"/><path d="M7.12,3a1.17,1.17,0,0,0,0-2.34A1.17,1.17,0,1,0,7.12,3Z"/></g></g></svg>