<svg xmlns="http://www.w3.org/2000/svg" viewBox="0 0 11.04 11.04"><defs><style>.cls-1{fill:none;}</style></defs><title>monoradical</title><g id="Layer_2" data-name="Layer 2"><g id="Export"><circle class="cls-1" cx="5.52" cy="5.52" r="5.52"/><path d="M8.4,10.39H6.88L6.39,8.66H4.47L4,10.39H2.49L4.68,3.7H6.22Zm-1.29-.3H8L6,4H4.89l-2,6.09h.84l.5-1.73H6.62ZM6.45,7.77h-2l.28-1c.21-.73.41-1.51.56-2.1l0-.12h.27l.15.56c.15.55.3,1.12.46,1.66Zm-1.64-.3H6.05l-.17-.59c-.16-.52-.31-1.08-.45-1.62-.13.5-.28,1.08-.45,1.62Z"/><path d="M5.41,3a1.17,1.17,0,0,0,0-2.34A1.17,1.17,0,0,0,5.41,3Z"/></g></g></svg>