<?xml version="1.0" encoding="UTF-8"?>
<svg width="10px" height="8px" viewBox="0 0 10 8" version="1.1" xmlns="http://www.w3.org/2000/svg" xmlns:xlink="http://www.w3.org/1999/xlink">
    <!-- Generator: Sketch 50.2 (55047) - http://www.bohemiancoding.com/sketch -->
    <title>open</title>
    <desc>Created with Sketch.</desc>
    <defs></defs>
    <g id="🔵-Chemical-Drawer" stroke="none" stroke-width="1" fill="none" fill-rule="evenodd">
        <path d="M8.1345,1.8722 L9.04913502,1.8722 L9.0493,1.8714 L8.1343,1.8714 L8.1343,1.7224 L9.2333,1.7224 L8.1343,7.0524 L8.1343,6.3084 L8.1343,5.5662 L8.8653,2.0222 L8.1343,2.0222 L8.1343,2.0219 L7.8345,2.0219 L7.8345,1.9519 L7.8345,1.8719 L8.1345,1.8719 L8.1345,1.8722 Z M0.3211,6.34008448 L0.3211,6.7517 L0.3212,6.7517 L0.3212,6.3397 L0.946894581,3.30430001 L0.3212,6.33640781 L0.3212,6.3396 L0.3211,6.34008448 Z M8.0122,6.9016 L8.1342,6.3086 L8.1342,7.0516 L0.0212,7.0516 L0.3205,5.599995 L0.3205,5.598655 L0.0208,7.0522 L0.0208,3.2292 L0.0208,1.9522 L0.0208,0.0972 L2.1808,0.0972 L2.8768,0.6772 L8.1338,0.6772 L8.1338,1.7222 L7.8348,1.7222 L7.8348,0.9772 L2.8768,0.9772 L2.7678,0.9772 L2.6848,0.9072 L2.0718,0.3972 L0.3208,0.3972 L0.3208,1.9522 L0.3208,3.2292 L0.3208,5.59534725 L1.1205,1.7228 L7.834,1.7228 L7.834,1.7225 L8.134,1.7225 L8.134,1.8715 L7.8345,1.8715 L7.8345,1.8718 L7.8342,1.9517 L7.8342,2.0227 L1.3642,2.0227 L0.3892,6.7517 L0.3891,6.7517 L7.8341,6.7517 L7.8901,6.7517 L8.1341,5.5667 L8.1341,6.3087 L8.01212057,6.9016 Z" id="open" fill="#000000"></path>
    </g>
</svg>