<?xml version="1.0" encoding="UTF-8"?>
<svg width="9px" height="8px" viewBox="0 0 9 8" version="1.1" xmlns="http://www.w3.org/2000/svg" xmlns:xlink="http://www.w3.org/1999/xlink">
    <!-- Generator: Sketch 50.2 (55047) - http://www.bohemiancoding.com/sketch -->
    <title>templates</title>
    <desc>Created with Sketch.</desc>
    <defs></defs>
    <g id="🔵-Chemical-Drawer" stroke="none" stroke-width="1" fill="none" fill-rule="evenodd">
        <g id="templates">
            <path d="M3.3013,3.7297 L4.2753,3.1677 L5.2493,3.7297 L5.2493,4.8547 L4.2753,5.4167 L3.3013,4.8547 L3.3013,3.7297 Z M4.2753,2.8207 C4.2753,2.8207 4.2563,2.8327 4.2203,2.8527 C4.1863,2.8727 4.1363,2.9017 4.0763,2.9357 C4.0163,2.9707 3.9473,3.0107 3.8723,3.0537 C3.7983,3.0967 3.7183,3.1427 3.6383,3.1887 C3.5593,3.2347 3.4793,3.2807 3.4053,3.3237 C3.3303,3.3667 3.2603,3.4077 3.2003,3.4417 C3.1403,3.4767 3.0913,3.5047 3.0563,3.5247 C3.0213,3.5447 3.0013,3.5567 3.0013,3.5567 L3.0013,5.0277 L4.2753,5.7637 L5.5503,5.0277 L5.5503,3.5567 C5.5503,3.5567 5.5303,3.5447 5.4953,3.5247 C5.4603,3.5047 5.4103,3.4767 5.3503,3.4417 C5.2913,3.4077 5.2213,3.3667 5.1463,3.3237 C5.0723,3.2807 4.9923,3.2347 4.9123,3.1887 C4.8333,3.1427 4.7533,3.0967 4.6783,3.0537 C4.6043,3.0107 4.5343,2.9707 4.4743,2.9357 C4.4153,2.9017 4.3653,2.8727 4.3303,2.8527 C4.2953,2.8327 4.2753,2.8207 4.2753,2.8207 Z" id="Fill-52" fill="#000000"></path>
            <path d="M2.3481,0.0974 L0.1881,0.0974 L0.1881,1.9514 L0.1881,3.2294 L0.1881,7.0524 L8.3011,7.0524 L8.3011,3.2294 L8.3011,1.9514 L8.3011,0.6774 L3.0431,0.6774 L2.3481,0.0974 Z M2.2391,0.3974 L2.8511,0.9074 L2.9351,0.9764 L3.0431,0.9764 L8.0011,0.9764 L8.0011,1.9514 L8.0011,3.2294 L8.0011,6.7514 L0.4881,6.7514 L0.4881,3.2294 L0.4881,1.9514 L0.4881,0.3974 L2.2391,0.3974 Z" id="Fill-67" fill="#000000"></path>
            <path d="M8.3013,1.9519 L0.1883,1.9519" id="Stroke-77" stroke="#000000" stroke-width="0.3" stroke-dasharray="12"></path>
        </g>
    </g>
</svg>