<?xml version="1.0" encoding="UTF-8"?>
<svg width="18px" height="18px" viewBox="0 0 18 18" version="1.1" xmlns="http://www.w3.org/2000/svg" xmlns:xlink="http://www.w3.org/1999/xlink">
    <title>icon / bond-down</title>
    <defs>
        <polygon id="path-1" points="0.085 10 8.1310177 0 12.085 6.23124024"></polygon>
    </defs>
    <g id="Details" stroke="none" stroke-width="1" fill="none" fill-rule="evenodd">
        <g id="Exportable-Icon-assets" transform="translate(-339.000000, -315.000000)">
            <g id="Group" transform="translate(339.000000, 315.000000)">
                <g id="Group-3" transform="translate(3.000000, 4.000000)">
                    <mask id="mask-2" fill="white">
                        <use xlink:href="#path-1"></use>
                    </mask>
                    <g id="Fill-27-Copy"></g>
                    <path d="M-2.34100032,4.81100138 L3.18899862,13.6589997 L2.34100032,14.1889986 L-3.18899862,5.34100032 L-2.34100032,4.81100138 Z M-0.341000318,3.81100138 L5.18899862,12.6589997 L4.34100032,13.1889986 L-1.18899862,4.34100032 L-0.341000318,3.81100138 Z M1.65899968,2.81100138 L7.18899862,11.6589997 L6.34100032,12.1889986 L0.811001378,3.34100032 L1.65899968,2.81100138 Z M3.65899968,1.81100138 L9.18899862,10.6589997 L8.34100032,11.1889986 L2.81100138,2.34100032 L3.65899968,1.81100138 Z M5.65899968,0.811001378 L11.1889986,9.65899968 L10.3410003,10.1889986 L4.81100138,1.34100032 L5.65899968,0.811001378 Z M7.65899968,-0.188998622 L13.1889986,8.65899968 L12.3410003,9.18899862 L6.81100138,0.341000318 L7.65899968,-0.188998622 Z" id="Combined-Shape" fill="#31353B" fill-rule="nonzero" mask="url(#mask-2)"></path>
                </g>
            </g>
        </g>
    </g>
</svg>