<?xml version="1.0" encoding="UTF-8"?>
<svg width="18px" height="18px" viewBox="0 0 18 18" version="1.1" xmlns="http://www.w3.org/2000/svg" xmlns:xlink="http://www.w3.org/1999/xlink">
    <title>icon / bond-aromatic</title>
    <g id="Details" stroke="none" stroke-width="1" fill="none" fill-rule="evenodd">
        <g id="Exportable-Icon-assets" transform="translate(-339.000000, -171.000000)" fill="#31353B" fill-rule="nonzero">
            <g id="Combined-Shape" transform="translate(339.000000, 171.000000)">
                <path d="M15.6288512,6.61620666 L16.1288512,7.48223206 L4.00449553,14.4822321 L3.50449553,13.6162067 L15.6288512,6.61620666 Z M3.73654633,10.0181304 L4.23654633,10.8841559 L2.50449553,11.8841559 L2.00449553,11.0181304 L3.73654633,10.0181304 Z M6.33462254,8.51813045 L6.83462254,9.38415585 L5.10257174,10.3841559 L4.60257174,9.51813045 L6.33462254,8.51813045 Z M8.93269876,7.01813045 L9.43269876,7.88415585 L7.70064795,8.88415585 L7.20064795,8.01813045 L8.93269876,7.01813045 Z M11.530775,5.51813045 L12.030775,6.38415585 L10.2987242,7.38415585 L9.79872416,6.51813045 L11.530775,5.51813045 Z M14.1288512,4.01813045 L14.6288512,4.88415585 L12.8968004,5.88415585 L12.3968004,5.01813045 L14.1288512,4.01813045 Z"></path>
            </g>
        </g>
    </g>
</svg>