<?xml version="1.0" encoding="UTF-8"?>
<svg width="18px" height="18px" viewBox="0 0 18 18" version="1.1" xmlns="http://www.w3.org/2000/svg" xmlns:xlink="http://www.w3.org/1999/xlink">
    <title>icon / bond-updown</title>
    <g id="Details" stroke="none" stroke-width="1" fill="none" fill-rule="evenodd">
        <g id="Exportable-Icon-assets" transform="translate(-339.000000, -380.000000)" fill="#31353B" fill-rule="nonzero">
            <g id="Path-9" transform="translate(339.000000, 380.000000)">
                <path d="M8.67564765,3.73483833 C8.95368567,3.26119294 9.34123117,3.2997418 10.2353442,3.81950423 L10.5349976,3.99959962 L10.8711073,4.21147024 L11.2464519,4.45489929 L11.6777201,4.74186604 L12.1524977,5.06665556 L12.9463233,5.62480452 L13.8382487,6.26817554 L14.8283963,6.99684109 L15.9168883,7.81087367 L16.3015945,8.10120084 L15.6984055,8.89879916 L14.5858621,8.06285871 L13.8988989,7.55298151 L12.9506432,6.85934402 L12.3733183,6.44440256 L11.58969,5.89326938 L11.12223,5.57339791 L10.6987793,5.29159202 L10.3058217,5.03938434 L10.011,4.859 L10.2097854,5.19115586 L10.6348301,5.87916033 L11.4794886,7.23373384 L11.7570271,7.68854225 L12.0046712,8.10367021 L12.2225224,8.48142385 L12.4106818,8.82410934 L12.5692506,9.13403282 C13.0246404,10.0660183 13.0364612,10.5398971 12.6191773,10.8852091 C12.2203626,11.2152374 11.8399058,11.183036 11.1135624,10.6834842 L10.8581377,10.4995135 C10.8132653,10.4659188 10.7672004,10.4308455 10.7198805,10.3942758 L10.4204029,10.156755 L10.0878093,9.88245273 L8.19795102,8.2657739 L7.96351636,8.07380696 L7.69354686,7.86464447 L7.502,7.724 L7.60993599,7.9774631 L7.82580777,8.42654394 L8.38648406,9.5268844 L8.58974464,9.93453978 L8.76452891,10.3005095 C8.79127195,10.3582142 8.81681748,10.4143197 8.84116001,10.4688947 L8.97273528,10.7785308 C9.30438081,11.6069193 9.28518377,12.0328042 8.88814654,12.3943533 C8.41432129,12.8258268 7.90810949,12.7128101 7.02086145,12.1415119 L6.6913258,11.9209885 L5.34746689,10.9586511 L5.21016089,10.8684487 L5.078,10.788 L5.15738191,10.9965974 L5.30397496,11.3465132 L5.49117436,11.7837138 L5.62935303,12.1274815 C5.95793642,12.9885277 5.96051515,13.419462 5.4724487,13.7857712 C5.11147722,14.0566916 4.82086426,14.0998518 4.28950255,13.99418 L3.97392306,13.922255 L3.79472029,13.8761119 C3.437642,13.7818818 3.25812154,13.7480131 3.07492086,13.750159 C2.97201281,13.7513645 2.88022907,13.7663549 2.79449481,13.79697 L2.71058908,13.8328616 L2.26247578,12.9388848 C2.51409826,12.812757 2.7803955,12.7535405 3.06320781,12.7502276 C3.32150355,12.747202 3.53748328,12.7805555 3.87199758,12.8635291 L4.31590474,12.9760844 L4.51548916,13.0176016 C4.71446488,13.0518602 4.80343592,13.0375674 4.87217677,12.9859752 L4.86664914,12.9830239 L4.81673962,12.8461043 L4.70136219,12.5132987 L4.61037736,12.2752288 C4.59307191,12.2316286 4.57464723,12.1860775 4.55503042,12.1385903 L4.29651046,11.5322629 L4.16798439,11.2169775 L4.0683375,10.9476823 C3.85574932,10.3268791 3.91874168,10.080388 4.29360059,9.78186586 C4.62304454,9.51951028 4.97370045,9.58727049 5.44406461,9.84526544 L5.73017219,10.0138732 L5.94028473,10.1522207 L6.91122605,10.8518452 C7.01803675,10.9287851 7.11941454,10.9995999 7.21492612,11.06454 L7.48342884,11.2419865 L7.81450052,11.4453501 L7.98363511,11.5412447 L8.1534673,11.6293186 L8.20698404,11.6530455 C8.21174263,11.6547716 8.21438467,11.6554045 8.21485601,11.6549752 L8.21443966,11.6455393 L8.17934535,11.5322102 L8.09146506,11.2982764 L8.04500093,11.182814 L7.92875498,10.9077329 L7.78053998,10.5767933 L7.59930135,10.1936154 L6.81870513,8.64859842 L6.66679687,8.33573106 L6.54093347,8.06261959 L6.44047366,7.82534395 C6.20588228,7.23690548 6.23542233,6.98890169 6.4743724,6.74682007 L6.57368789,6.65566372 L6.63050731,6.60906873 C6.66603628,6.58073822 6.70018949,6.55460196 6.73350018,6.53092739 L6.83143787,6.46755626 C7.05654977,6.33817037 7.26650517,6.34251347 7.64419643,6.57232494 L7.81686686,6.68488722 L8.01327566,6.82666264 L8.35939674,7.09761084 L8.62914832,7.31943999 L9.10028019,7.71799114 L10.3481093,8.79203719 L10.8256762,9.19152735 L11.2153724,9.50037944 L11.4423184,9.66802267 L11.6138175,9.78659116 L11.784,9.895 L11.7621146,9.83553539 L11.7010005,9.6910076 L11.628116,9.53212521 C11.5808336,9.43250746 11.5285537,9.32774169 11.4707578,9.21675099 L11.2803033,8.86402721 L11.0536414,8.46749247 L10.7876607,8.02068536 L10.2110282,7.08668196 L9.44881138,5.86407843 L9.1077809,5.29365042 L8.92439035,4.97073602 C8.56972517,4.32953476 8.4917298,4.04814742 8.67564765,3.73483833 Z"></path>
            </g>
        </g>
    </g>
</svg>