<?xml version="1.0" encoding="UTF-8"?>
<svg width="18px" height="18px" viewBox="0 0 18 18" version="1.1" xmlns="http://www.w3.org/2000/svg" xmlns:xlink="http://www.w3.org/1999/xlink">
    <title>icon / bond-singledouble</title>
    <g id="Details" stroke="none" stroke-width="1" fill="none" fill-rule="evenodd">
        <g id="Exportable-Icon-assets" transform="translate(-339.000000, -193.000000)" fill="#31353B" fill-rule="nonzero">
            <g id="Combined-Shape" transform="translate(339.000000, 193.000000)">
                <path d="M7.71868684,12.415193 L8.21868684,13.2812184 L6.48663603,14.2812184 L5.98663603,13.415193 L7.71868684,12.415193 Z M4.48654633,10.8171686 L4.98654633,11.683194 L3.25449553,12.683194 L2.75449553,11.8171686 L4.48654633,10.8171686 Z M11.1827885,10.415193 L11.6827885,11.2812184 L9.95073765,12.2812184 L9.45073765,11.415193 L11.1827885,10.415193 Z M7.95064795,8.81716856 L8.45064795,9.68319396 L6.71859714,10.683194 L6.21859714,9.81716856 L7.95064795,8.81716856 Z M14.6468901,8.41519298 L15.1468901,9.28121838 L13.4148393,10.2812184 L12.9148393,9.41519298 L14.6468901,8.41519298 Z M4.71868684,7.21904056 L5.21868684,8.08506596 L3.48663603,9.08506596 L2.98663603,8.21904056 L4.71868684,7.21904056 Z M11.4147496,6.81716856 L11.9147496,7.68319396 L10.1826988,8.68319396 L9.68269876,7.81716856 L11.4147496,6.81716856 Z M8.18278845,5.21904056 L8.68278845,6.08506596 L6.95073765,7.08506596 L6.45073765,6.21904056 L8.18278845,5.21904056 Z M14.8788512,4.81716856 L15.3788512,5.68319396 L13.6468004,6.68319396 L13.1468004,5.81716856 L14.8788512,4.81716856 Z M11.6468901,3.21904056 L12.1468901,4.08506596 L10.4148393,5.08506596 L9.91483926,4.21904056 L11.6468901,3.21904056 Z"></path>
            </g>
        </g>
    </g>
</svg>