<?xml version="1.0" encoding="UTF-8"?>
<svg width="18px" height="18px" viewBox="0 0 18 18" version="1.1" xmlns="http://www.w3.org/2000/svg" xmlns:xlink="http://www.w3.org/1999/xlink">
    <title>icon / charge-plus</title>
    <g id="Details" stroke="none" stroke-width="1" fill="none" fill-rule="evenodd">
        <g id="Exportable-Icon-assets" transform="translate(-43.000000, -337.000000)" fill="#31353B">
            <g id="Group" transform="translate(43.000000, 337.000000)">
                <path d="M14,2 L14,4 L16,4 L16,5 L14,5 L14,7 L13,7 L13,5 L11,5 L11,4 L13,4 L13,2 L14,2 Z" id="Combined-Shape"></path>
                <path d="M6.428,15.168 C7.116,15.168 7.76,14.912 8.36,14.4 C8.56,14.488 8.748,14.676 8.924,14.964 C8.972,15.044 9.016,15.084 9.056,15.084 C9.096,15.084 9.116,15.04 9.116,14.952 C9.116,14.872 9.112,14.804 9.104,14.748 C9.096,14.588 9.092,14.388 9.092,14.148 C9.092,13.956 9.108,13.684 9.14,13.332 C9.18,12.868 9.2,12.616 9.2,12.576 L9.2,12.576 L9.212,12.372 C9.22,12.268 9.184,12.216 9.104,12.216 C9.032,12.216 8.968,12.34 8.912,12.588 C8.56,14.092 7.82,14.844 6.692,14.844 C6.172,14.844 5.752,14.66 5.432,14.292 C4.824,13.596 4.52,12.5 4.52,11.004 C4.52,9.996 4.648,9.132 4.904,8.412 C5.272,7.356 5.864,6.828 6.68,6.828 C7.712,6.828 8.372,7.548 8.66,8.988 C8.724,9.3 8.788,9.456 8.852,9.456 C8.932,9.456 8.972,9.384 8.972,9.24 L8.972,9.24 L8.972,8.412 C8.96628571,8.20628571 8.96261224,8.06383673 8.96097959,7.98465306 L8.96,7.92 C8.96,7.52 8.984,7.184 9.032,6.912 C9.04,6.864 9.044,6.828 9.044,6.804 C9.044,6.748 9.028,6.72 8.996,6.72 C8.972,6.72 8.908,6.776 8.804,6.888 C8.66,7.04 8.504,7.116 8.336,7.116 C8.224,7.116 8.048,7.048 7.808,6.912 C7.392,6.672 6.92,6.552 6.392,6.552 C5.248,6.552 4.294,6.962 3.53,7.782 C2.766,8.602 2.384,9.624 2.384,10.848 C2.384,12.112 2.808,13.16 3.656,13.992 C4.456,14.776 5.38,15.168 6.428,15.168 Z" id="C" stroke="#31353B" stroke-width="0.5" fill-rule="nonzero"></path>
            </g>
        </g>
    </g>
</svg>