<?xml version="1.0" encoding="UTF-8"?>
<svg width="18px" height="18px" viewBox="0 0 18 18" version="1.1" xmlns="http://www.w3.org/2000/svg" xmlns:xlink="http://www.w3.org/1999/xlink">
    <title>icon / clean</title>
    <g id="Details" stroke="none" stroke-width="1" fill="none" fill-rule="evenodd">
        <g id="Exportable-Icon-assets" transform="translate(-43.000000, -183.000000)" fill="#31353B" fill-rule="nonzero">
            <g id="Group" transform="translate(43.000000, 183.000000)">
                <path d="M6.62984831,4.01712928 L6.62957417,4.01708123 L7.5954117,4.27622957 L7.33626336,5.2420671 L6.60797144,5.04597389 L2.08,8.504 L3.779,14 L9.44397144,13.9999739 L9.70930726,13.7245777 L10.4305971,14.417211 L10.0185397,14.8463167 L9.98214049,14.8108177 C9.90825596,14.9037991 9.80196058,14.9698692 9.68033778,14.9919443 L9.59046214,15 L3.41052114,15 C3.22258108,15 3.0534355,14.8950453 2.96816605,14.7331384 L2.93282231,14.6476612 L1.02230117,8.46693333 C0.969252711,8.29531622 1.01276311,8.11095121 1.13115359,7.98166765 L1.19648847,7.92193002 L6.19648847,4.10265789 C6.3247244,4.00470431 6.4851744,3.97833642 6.62984831,4.01712928 Z M11.0945739,12.2819979 L11.8158638,12.9746312 L11.1232304,13.6959211 L10.4019406,13.0032878 L11.0945739,12.2819979 Z M12.4798405,10.8394181 L13.2011304,11.5320514 L12.5084971,12.2533413 L11.7872072,11.560708 L12.4798405,10.8394181 Z M13.8651071,9.39683832 L14.586397,10.0894716 L13.8937637,10.8107615 L13.1724738,10.1181282 L13.8651071,9.39683832 Z M15.2503737,7.95425853 L15.9716636,8.64689184 L15.2790303,9.36818173 L14.5577404,8.67554843 L15.2503737,7.95425853 Z M16.2879495,6.6085646 L16.77592,6.73949422 C17.1432615,6.83805733 17.2704232,7.29439807 17.0069908,7.56872964 L17.0069908,7.56872964 L16.6642969,7.92560194 L16.4039714,7.67497389 L16.0288012,7.57440214 L16.0829714,7.36697389 L15.943007,7.23296864 L16.1879714,6.97697389 L16.2879495,6.6085646 Z M16.2857009,6.87609634 L16.1879714,6.97697389 L16.0829714,7.36697389 L16.4039714,7.67497389 L16.5167717,7.70533176 L16.6463458,7.22241299 L16.2857009,6.87609634 Z M14.3562744,6.09026793 L15.322112,6.34941627 L15.0629636,7.3152538 L14.0971261,7.05610546 L14.3562744,6.09026793 Z M12.4245994,5.57197126 L13.3904369,5.83111959 L13.1312886,6.79695712 L12.165451,6.53780879 L12.4245994,5.57197126 Z M10.4929243,5.05367458 L11.4587618,5.31282292 L11.1996135,6.27866045 L10.233776,6.01951211 L10.4929243,5.05367458 Z M8.56124923,4.53537791 L9.52708677,4.79452624 L9.26793843,5.76036378 L8.3021009,5.50121544 L8.56124923,4.53537791 Z" id="Combined-Shape" opacity="0.6"></path>
                <path d="M6.29176989,4.21129916 C6.43349884,4.01089092 6.69578605,3.94633982 6.91066961,4.04645268 L6.98870084,4.09176989 L12.2428043,7.80747841 C12.398299,7.91744443 12.4756035,8.10405675 12.448967,8.28743085 L12.4268677,8.37847822 L10.2632264,14.6627697 C10.1733312,14.9238702 9.88879292,15.0626595 9.62769244,14.9727642 C9.39560313,14.8928574 9.26015476,14.6591585 9.29605671,14.4248327 L9.31769791,14.3372303 L11.359,8.407 L6.41129916,4.90823011 C6.21089092,4.76650116 6.14633982,4.50421395 6.24645268,4.28933039 L6.29176989,4.21129916 Z" id="Path"></path>
                <path d="M15.9966863,6.53146019 L16.7753149,6.73933227 C17.1083184,6.82823491 17.2461838,7.21287557 17.0690746,7.48991754 L17.0181659,7.55670298 L16.4828575,8.15210956 L15.762,7.503 L15.7387482,7.49762163 L15.741,7.485 L15.9966863,6.53146019 Z" id="Path"></path>
            </g>
        </g>
    </g>
</svg>