<?xml version="1.0" encoding="UTF-8"?>
<svg width="18px" height="18px" viewBox="0 0 18 18" version="1.1" xmlns="http://www.w3.org/2000/svg" xmlns:xlink="http://www.w3.org/1999/xlink">
    <title>icon / copy</title>
    <g id="Details" stroke="none" stroke-width="1" fill="none" fill-rule="evenodd">
        <g id="Exportable-Icon-assets" transform="translate(-43.000000, -162.000000)">
            <g id="Group" transform="translate(43.000000, 162.000000)">
                <path d="M3,6 L11,6 C11.5522847,6 12,6.44771525 12,7 L12,15 L12,15" id="Rectangle" stroke="#31353B" transform="translate(7.500000, 10.500000) scale(-1, -1) translate(-7.500000, -10.500000) "></path>
                <path d="M5.5,3 L10.016243,3 L10.016243,3 L14,6.99162332 L14,12.5 C14,12.7761424 13.7761424,13 13.5,13 L5.5,13 C5.22385763,13 5,12.7761424 5,12.5 L5,3.5 C5,3.22385763 5.22385763,3 5.5,3 Z" id="Rectangle-Copy" stroke="#31353B" fill-rule="nonzero"></path>
                <path d="M9.5,3 L14.5,7.5 L10.5,7.5 C9.94771525,7.5 9.5,7.05228475 9.5,6.5 L9.5,3 L9.5,3 Z" id="Rectangle" fill="#31353B"></path>
            </g>
        </g>
    </g>
</svg>