<?xml version="1.0" encoding="UTF-8"?>
<svg width="18px" height="18px" viewBox="0 0 18 18" version="1.1" xmlns="http://www.w3.org/2000/svg" xmlns:xlink="http://www.w3.org/1999/xlink">
    <title>icon /  cut</title>
    <g id="Details" stroke="none" stroke-width="1" fill="none" fill-rule="evenodd">
        <g id="Exportable-Icon-assets" transform="translate(-43.000000, -138.000000)">
            <g id="Group" transform="translate(43.000000, 138.000000)">
                <path d="M5.00457051,3 L5.00457051,4 L4.5,4 C4.25454011,4 4.05039163,4.17687516 4.00805567,4.41012437 L4,4.5 L4,5.0043906 L3,5.0043906 L3,4.5 C3,3.72030388 3.59488808,3.07955132 4.35553999,3.00686658 L4.5,3 L5.00457051,3 Z" id="Path-2" fill="#31353B" fill-rule="nonzero"></path>
                <path d="M5.00457051,12 L5.00457051,13 L4.5,13 C4.25454011,13 4.05039163,13.1768752 4.00805567,13.4101244 L4,13.5 L4,14.0043906 L3,14.0043906 L3,13.5 C3,12.7203039 3.59488808,12.0795513 4.35553999,12.0068666 L4.5,12 L5.00457051,12 Z" id="Path-2-Copy-2" fill="#31353B" fill-rule="nonzero" transform="translate(4.002285, 13.002195) scale(1, -1) translate(-4.002285, -13.002195) "></path>
                <path d="M14.0045705,3 L14.0045705,4 L13.5,4 C13.2545401,4 13.0503916,4.17687516 13.0080557,4.41012437 L13,4.5 L13,5.0043906 L12,5.0043906 L12,4.5 C12,3.72030388 12.5948881,3.07955132 13.35554,3.00686658 L13.5,3 L14.0045705,3 Z" id="Path-2-Copy" fill="#31353B" fill-rule="nonzero" transform="translate(13.002285, 4.002195) scale(-1, 1) translate(-13.002285, -4.002195) "></path>
                <rect id="Rectangle" fill="#31353B" x="6" y="3" width="2" height="1"></rect>
                <rect id="Rectangle-Copy-6" fill="#31353B" x="6" y="13" width="1" height="1"></rect>
                <rect id="Rectangle-Copy" fill="#31353B" x="9" y="3" width="2" height="1"></rect>
                <rect id="Rectangle-Copy-3" fill="#31353B" x="13" y="6" width="1" height="1"></rect>
                <rect id="Rectangle-Copy-4" fill="#31353B" x="3" y="6" width="1" height="2"></rect>
                <rect id="Rectangle-Copy-5" fill="#31353B" x="3" y="9" width="1" height="2"></rect>
                <ellipse id="Oval" stroke="#31353B" transform="translate(9.916025, 14.599038) rotate(30.000000) translate(-9.916025, -14.599038) " cx="9.9160254" cy="14.5990381" rx="1" ry="1.5"></ellipse>
                <g transform="translate(12.500000, 12.500000) rotate(4.000000) translate(-12.500000, -12.500000) translate(9.000000, 8.000000)">
                    <ellipse id="Oval-Copy" stroke="#31353B" transform="translate(5.116025, 6.599038) scale(-1, 1) rotate(30.000000) translate(-5.116025, -6.599038) " cx="5.1160254" cy="6.59903811" rx="1" ry="1.5"></ellipse>
                    <path d="M2,0 C2.55228475,-1.01453063e-16 3,0.44771525 3,1 L3,7 L3,7 L2,7 L2,0 Z" id="Rectangle" fill="#31353B" transform="translate(2.500000, 3.500000) scale(-1, 1) rotate(26.000000) translate(-2.500000, -3.500000) "></path>
                </g>
                <path d="M12,8 C12.5522847,8 13,8.44771525 13,9 L13,15 L13,15 L12,15 L12,8 Z" id="Rectangle" fill="#31353B" transform="translate(12.500000, 11.500000) rotate(26.000000) translate(-12.500000, -11.500000) "></path>
            </g>
        </g>
    </g>
</svg>