<?xml version="1.0" encoding="UTF-8"?>
<svg width="18px" height="18px" viewBox="0 0 18 18" version="1.1" xmlns="http://www.w3.org/2000/svg" xmlns:xlink="http://www.w3.org/1999/xlink">
    <title>icon / erase</title>
    <g id="Details" stroke="none" stroke-width="1" fill="none" fill-rule="evenodd">
        <g id="Exportable-Icon-assets" transform="translate(-43.000000, -159.000000)" fill="#31353B" fill-rule="nonzero">
            <g id="Combined-Shape" transform="translate(43.000000, 159.000000)">
                <path d="M9.37277295,1.71751442 L14.7824856,7.12722705 L7.90925202,13.9995144 L9,14 L9,15 L6,15 L5.9995191,14.7908589 C5.77021199,14.7217596 5.55418528,14.5966093 5.37298413,14.4154082 L5.37298413,14.4154082 L2.08459185,11.1270159 C1.49880541,10.5412294 1.49880541,9.59148196 2.08459185,9.00569553 L2.08459185,9.00569553 L9.37277295,1.71751442 Z M11.0753788,14 L11.0753788,15 L10.0753788,15 L10.0753788,14 L11.0753788,14 Z M13.0753788,14 L13.0753788,15 L12.0753788,15 L12.0753788,14 L13.0753788,14 Z M15.0753788,14 L15.0753788,15 L14.0753788,15 L14.0753788,14 L15.0753788,14 Z M4.18225202,8.32151442 L2.79169863,9.71280231 C2.59643648,9.90806445 2.59643648,10.2246469 2.79169863,10.4199091 L2.79169863,10.4199091 L6.08009091,13.7083014 C6.27535306,13.9035635 6.59193555,13.9035635 6.78719769,13.7083014 L6.78719769,13.7083014 L8.14347316,12.3505547 L4.18225202,8.32151442 Z M12.513252,6.27251442 L8.00425202,10.7805144 L8.85125202,11.6425144 L13.368,7.127 L12.513252,6.27251442 Z M9.373,3.132 L4.88925202,7.61451442 L5.73725202,8.47651442 L10.227252,3.98651442 L9.373,3.132 Z"></path>
            </g>
        </g>
    </g>
</svg>