<?xml version="1.0" encoding="UTF-8"?>
<svg width="18px" height="18px" viewBox="0 0 18 18" version="1.1" xmlns="http://www.w3.org/2000/svg" xmlns:xlink="http://www.w3.org/1999/xlink">
    <title>icon / open</title>
    <g id="Details" stroke="none" stroke-width="1" fill="none" fill-rule="evenodd">
        <g id="Exportable-Icon-assets" transform="translate(-43.000000, -53.000000)" fill="#31353B" fill-rule="nonzero">
            <g id="Group" transform="translate(43.000000, 53.000000)">
                <g id="Combined-Shape" transform="translate(1.000000, 1.000000)">
                    <path d="M3,13.5 C2.22030388,13.5 1.57955132,12.9051119 1.50686658,12.14446 L1.5,12 L1.5,4.13799087 L2.626,4.137 L2.66736727,3.81123046 C2.75649499,3.10863463 3.32242406,2.57095733 4.01528165,2.50649219 L4.15544189,2.5 L5.79843035,2.5 C6.27149576,2.5 6.71349899,2.72285672 6.99509256,3.09553698 L7.08283855,3.22521256 L7.633,4.137 L12.5,4.13799087 L12.5,6.5 L15,6.5 L13.5713684,12.7237274 C13.4670912,13.1780033 13.0628071,13.5 12.5967166,13.5 L3,13.5 Z M5.79843035,3.5 L4.15544189,3.5 C3.93160737,3.5 3.7388189,3.64796245 3.6764836,3.85629383 L3.65941702,3.93707682 L3.50707519,5.13799087 L2.5,5.137 L2.5,11.318 L3.60682186,6.5 L11.5,6.5 L11.5,5.137 L7.06882167,5.13799087 L6.22656642,3.74173752 C6.15114972,3.61671507 6.02578401,3.53219009 5.88469601,3.50748795 L5.79843035,3.5 Z"></path>
                </g>
            </g>
        </g>
    </g>
</svg>