<?xml version="1.0" encoding="UTF-8"?>
<svg width="18px" height="18px" viewBox="0 0 18 18" version="1.1" xmlns="http://www.w3.org/2000/svg" xmlns:xlink="http://www.w3.org/1999/xlink">
    <title>icon / paste</title>
    <g id="Details" stroke="none" stroke-width="1" fill="none" fill-rule="evenodd">
        <g id="Exportable-Icon-assets" transform="translate(-43.000000, -186.000000)" fill="#31353B">
            <g id="Group" transform="translate(43.000000, 186.000000)">
                <path d="M9.72363871,2.5 L14,6.78480537 L14,12.5 C14,13.0128358 13.6139598,13.4355072 13.1166211,13.4932723 L13,13.5 L12.116,13.5 L12.621,12.5 L13,12.5 L13,7.5 L10,7.5 C9.44771525,7.5 9,7.05228475 9,6.5 L9,3.5 L5,3.5 L5,12.5 L5.336,12.5 L5.787,13.5 L5,13.5 C4.48716416,13.5 4.06449284,13.1139598 4.00672773,12.6166211 L4,12.5 L4,3.5 C4,2.98716416 4.38604019,2.56449284 4.88337887,2.50672773 L5,2.5 L9.72363871,2.5 Z" id="Combined-Shape" fill-rule="nonzero"></path>
                <polygon id="Path" transform="translate(8.895402, 12.790334) rotate(219.000000) translate(-8.895402, -12.790334) " points="6.20374941 9.54087072 7.40949991 14.9733692 8.33672387 12.9657202 10.8260618 16.0397965 11.5870551 15.4235563 9.10777812 12.3413328 11.2764852 11.8419462"></polygon>
            </g>
        </g>
    </g>
</svg>