<?xml version="1.0" encoding="UTF-8"?>
<svg width="18px" height="18px" viewBox="0 0 18 18" version="1.1" xmlns="http://www.w3.org/2000/svg" xmlns:xlink="http://www.w3.org/1999/xlink">
    <title>icon / period-table</title>
    <g id="Details" stroke="none" stroke-width="1" fill="none" fill-rule="evenodd">
        <g id="Exportable-Icon-assets" transform="translate(-606.000000, -367.000000)">
            <g id="Group" transform="translate(606.000000, 367.000000)">
                <path d="M10.421,8.281 L10.4210526,10.195122 L11.077,10.195 L11.077,10.536 L10.4210526,10.5365854 L10.4210526,12.9268293 L11.077,12.926 L11.077,13.268 L10.4210526,13.2682927 L10.4210526,15.6585366 L12.6315789,15.6585366 L12.631,15 L12.947,15 L12.9473684,15.6585366 L15.1578947,15.6585366 L15.1578947,13.2682927 L14.932,13.268 L14.932,12.926 L15.1578947,12.9268293 L15.1578947,10.5365854 L14.932,10.536 L14.932,10.195 L15.1578947,10.195122 L15.157,8.281 L15.473,8.281 L15.4736842,10.195122 L17.6842105,10.195122 L17.6842105,7.80487805 L17,7.804 L17,7.463 L17.6842105,7.46341463 L17.6842105,5.07317073 L17,5.073 L17,4.731 L17.6842105,4.73170732 L17.6842105,2.34146341 L15.4736842,2.34146341 L15.473,4 L15.157,4 L15.1578947,2.34146341 L12.9473684,2.34146341 L12.947,4 L12.631,4 L12.6315789,2.17073171 L12.7894737,2 L17.8421053,2 L18,2.17073171 L18,7.63414634 L17.999,7.635 L17.999,10.364 L18,10.3658537 L18,13.097561 L17.8421053,13.2682927 L15.473,13.268 L15.4736842,15.8292683 L15.3157895,16 L2.68421053,16 L2.52631579,15.8292683 L2.526,14.463 L2.842,14.463 L2.84210526,15.6585366 L5.05263158,15.6585366 L5.052,14.463 L5.368,14.463 L5.36842105,15.6585366 L7.57894737,15.6585366 L7.57894737,13.2682927 L6.12,13.268 L6.12,12.926 L7.57894737,12.9268293 L7.5795585,11.5051668 C7.68716226,11.4791686 7.79222401,11.4492014 7.89468453,11.4151896 L7.89473684,12.9268293 L10.1052632,12.9268293 L10.1052632,10.5365854 L9.27853098,10.5377489 C9.37588654,10.431094 9.46486041,10.3173351 9.54567742,10.1967735 L10.1052632,10.195122 L10.1062411,8.68058388 C10.1266897,8.55136711 10.1426106,8.4186216 10.1541125,8.28249269 L10.421,8.281 Z M10.1052632,13.2682927 L7.89473684,13.2682927 L7.89473684,15.6585366 L10.1052632,15.6585366 L10.1052632,13.2682927 Z M2.68421053,2 L2.84210526,2.17073171 L2.842,3.867 L2.526,3.867 L2.52631579,2.34146341 L0.315789474,2.34146341 L0.315789474,4.73170732 L2.084,4.731 L2.084,5.073 L0.315789474,5.07317073 L0.315789474,7.46341463 L2.084,7.463 L2.084,7.804 L0.315789474,7.80487805 L0.315789474,10.195122 L2.084,10.195 L2.084,10.536 L0.315789474,10.5365854 L0.315789474,12.9268293 L2.084,12.926 L2.084,13.268 L0.157894737,13.2682927 L0,13.097561 L0,2.17073171 L0.157894737,2 L2.68421053,2 Z M17.6842105,10.5365854 L15.4736842,10.5365854 L15.4736842,12.9268293 L17.6842105,12.9268293 L17.6842105,10.5365854 Z" id="Combined-Shape" fill="#33373D" fill-rule="nonzero"></path>
                <text id="PT" font-family="HelveticaNeue-Bold, Helvetica Neue" font-size="10" font-weight="bold" fill="#31353B">
                    <tspan x="2.61" y="12.5">PT</tspan>
                </text>
            </g>
        </g>
    </g>
</svg>