<?xml version="1.0" encoding="UTF-8"?>
<svg width="18px" height="18px" viewBox="0 0 18 18" version="1.1" xmlns="http://www.w3.org/2000/svg" xmlns:xlink="http://www.w3.org/1999/xlink">
    <title>icon /  redo</title>
    <g id="Details" stroke="none" stroke-width="1" fill="none" fill-rule="evenodd">
        <g id="Exportable-Icon-assets" transform="translate(-43.000000, -114.000000)" fill="#3E454C" fill-rule="nonzero">
            <g id="Group" transform="translate(43.000000, 114.000000)">
                <g id="icon-/-charge+-copy" transform="translate(9.000000, 9.000000) scale(-1, 1) translate(-9.000000, -9.000000) ">
                    <path d="M13.9724453,3.36563768 C13.8789868,2.95275055 13.361901,2.86578417 13.1527685,3.22746679 L12.439573,4.4604388 C12.3261971,4.65712913 12.1009775,4.73434227 11.8949092,4.66038021 C10.421023,4.1304542 8.82073804,4.12964143 7.43035162,4.63518434 C5.73354395,5.23257025 4.34775384,6.55738526 3.62689785,8.14391219 C2.89148685,9.72881359 2.8430244,11.393768 3.33349951,13.0936812 C3.82397461,14.7935944 5.77070618,16.5198212 6.12858582,16.4309692 C6.48646545,16.3421173 4.61924509,14.7359365 4.45495605,12.9016343 C4.29066702,11.0673321 4.51551948,10.1595817 5.25935706,9.20620251 C6.00166254,8.24388289 7.05881585,7.68632271 8.099116,7.59935633 C8.71502271,7.54571351 9.30564967,7.65625022 9.82886395,7.88788966 C10.0916202,8.00411576 10.1935052,8.34466637 10.0441249,8.60231444 L9.43741081,9.65241321 C9.22138383,10.0254746 9.53852982,10.4887535 9.9391756,10.3863445 L14.0567111,9.33949678 C14.7170489,9.17206617 15.1238232,8.4682074 14.9660162,7.76841248 L13.9724453,3.36563768 Z" id="Fill-1" transform="translate(9.005752, 9.717129) scale(-1, 1) rotate(-300.000000) translate(-9.005752, -9.717129) "></path>
                </g>
            </g>
        </g>
    </g>
</svg>