<?xml version="1.0" encoding="UTF-8"?>
<svg width="18px" height="18px" viewBox="0 0 18 18" version="1.1" xmlns="http://www.w3.org/2000/svg" xmlns:xlink="http://www.w3.org/1999/xlink">
    <title>icon / rgroup-label</title>
    <g id="Details" stroke="none" stroke-width="1" fill="none" fill-rule="evenodd">
        <g id="Exportable-Icon-assets" transform="translate(-43.000000, -380.000000)" fill="#31353B" fill-rule="nonzero">
            <g id="Group" transform="translate(43.000000, 380.000000)">
                <polygon id="Path-5" points="2.70710678 9 0 11.8936342 0 10.4665774 1.32102662 8.99975 0 7.63637064 0 6.2560251"></polygon>
                <path d="M7.134,13 L7.134,9.678 L7.981,9.678 C8.311,9.678 8.54566667,9.766 8.685,9.942 C8.82433333,10.118 8.90133333,10.36 8.916,10.668 L8.96,12.175 C8.96733333,12.329 8.982,12.4775 9.004,12.6205 C9.026,12.7635 9.07733333,12.89 9.158,13 L10.874,13 L10.874,12.934 C10.7273333,12.8533333 10.632,12.703 10.588,12.483 C10.5586667,12.263 10.5366667,11.944 10.522,11.526 C10.5146667,11.3133333 10.5073333,11.1208333 10.5,10.9485 C10.4926667,10.7761667 10.4816667,10.6166667 10.467,10.47 C10.423,10.03 10.3093333,9.711 10.126,9.513 C9.94266667,9.315 9.653,9.18666667 9.257,9.128 L9.257,9.106 C9.70433333,9.01066667 10.0343333,8.79616667 10.247,8.4625 C10.4596667,8.12883333 10.566,7.698 10.566,7.17 C10.566,6.488 10.3826667,5.98016667 10.016,5.6465 C9.64933333,5.31283333 9.136,5.146 8.476,5.146 L5.55,5.146 L5.55,13 L7.134,13 Z M7.794,8.578 L7.134,8.578 L7.134,6.312 L7.882,6.312 C8.61533333,6.312 8.982,6.675 8.982,7.401 C8.982,7.82633333 8.87933333,8.12883333 8.674,8.3085 C8.46866667,8.48816667 8.17533333,8.578 7.794,8.578 Z M14.4895006,13 L14.4895006,5.212 L13.3235006,5.212 C13.242834,5.652 13.050334,5.971 12.7460006,6.169 C12.4416673,6.367 12.0255006,6.466 11.4975006,6.466 L11.3545006,6.466 L11.3545006,7.5 L12.9055006,7.5 L12.9055006,13 L14.4895006,13 Z" id="R1"></path>
            </g>
        </g>
    </g>
</svg>