<?xml version="1.0" encoding="UTF-8"?>
<svg width="18px" height="18px" viewBox="0 0 18 18" version="1.1" xmlns="http://www.w3.org/2000/svg" xmlns:xlink="http://www.w3.org/1999/xlink">
    <title>icon /  select-rectangle</title>
    <g id="Details" stroke="none" stroke-width="1" fill="none" fill-rule="evenodd">
        <g id="Exportable-Icon-assets" transform="translate(-43.000000, -111.000000)" fill="#31353B">
            <g id="Group" transform="translate(43.000000, 111.000000)">
                <rect id="Rectangle" x="2" y="3" width="2" height="2"></rect>
                <rect id="Rectangle-Copy-4" x="5" y="3.5" width="1" height="1"></rect>
                <rect id="Rectangle-Copy-14" x="5" y="12.5" width="1" height="1"></rect>
                <rect id="Rectangle-Copy-8" x="2.5" y="6" width="1" height="1"></rect>
                <rect id="Rectangle-Copy-11" x="13.5" y="6" width="1" height="1"></rect>
                <rect id="Rectangle-Copy-9" x="2.5" y="8" width="1" height="1"></rect>
                <rect id="Rectangle-Copy-12" x="13.5" y="8" width="1" height="1"></rect>
                <rect id="Rectangle-Copy-10" x="2.5" y="10" width="1" height="1"></rect>
                <polygon id="Rectangle-Copy-13" points="13.5 10 14.5 10 14.5 11 14.3098127 11 13.5 10.6295043"></polygon>
                <rect id="Rectangle-Copy-5" x="7" y="3.5" width="1" height="1"></rect>
                <rect id="Rectangle-Copy-15" x="7" y="12.5" width="1" height="1"></rect>
                <rect id="Rectangle-Copy-6" x="9" y="3.5" width="1" height="1"></rect>
                <rect id="Rectangle-Copy-16" x="9" y="12.5" width="1" height="1"></rect>
                <rect id="Rectangle-Copy-7" x="11" y="3.5" width="1" height="1"></rect>
                <rect id="Rectangle-Copy-2" x="2" y="12" width="2" height="2"></rect>
                <rect id="Rectangle-Copy" x="13" y="3" width="2" height="2"></rect>
                <polygon id="Path" points="10.623 10.405 11.7922506 15.8043158 12.7896667 13.9270068 14.9317855 16.405 15.623 15.6975884 13.5377287 13.1019213 15.2987106 12.5587058"></polygon>
            </g>
        </g>
    </g>
</svg>