<?xml version="1.0" encoding="UTF-8"?>
<svg width="18px" height="18px" viewBox="0 0 18 18" version="1.1" xmlns="http://www.w3.org/2000/svg" xmlns:xlink="http://www.w3.org/1999/xlink">
    <title>icon /  select-fragment</title>
    <g id="Details" stroke="none" stroke-width="1" fill="none" fill-rule="evenodd">
        <g id="Exportable-Icon-assets" transform="translate(-43.000000, -135.000000)" fill="#31353B">
            <g id="Group" transform="translate(43.000000, 135.000000)">
                <path d="M9.22561834,2.42364921 L14.960177,5.64545676 L14.96,11.3016492 L13.96,10.8406492 L13.96,6.23 L9.236,3.576 L4.5,6.347 L4.5,11.768 L9.225,14.423 L10.33,13.7756492 L10.552,14.8046492 L9.23579422,15.5764068 L3.5,12.3533381 L3.5,5.77403359 L9.22561834,2.42364921 Z M6.08720694,10.5566124 L9.53994449,12.574182 L9.17438642,13.1967993 L5.72164887,11.1792298 L6.08720694,10.5566124 Z M12.146,7 L12.868,7.00102669 L12.855,10.3316492 L12.135,10.0006492 L12.146,7 Z M9.17438642,4.85661244 L9.53994449,5.47922978 L6.08720694,7.49679934 L5.72164887,6.87418199 L9.17438642,4.85661244 Z" id="Combined-Shape"></path>
                <polygon id="Path" points="10.623 10.405 11.7922506 15.8043158 12.7896667 13.9270068 14.9317855 16.405 15.623 15.6975884 13.5377287 13.1019213 15.2987106 12.5587058"></polygon>
            </g>
        </g>
    </g>
</svg>