<?xml version="1.0" encoding="UTF-8"?>
<svg width="18px" height="18px" viewBox="0 0 18 18" version="1.1" xmlns="http://www.w3.org/2000/svg" xmlns:xlink="http://www.w3.org/1999/xlink">
    <title>icon / select-lasso</title>
    <g id="Details" stroke="none" stroke-width="1" fill="none" fill-rule="evenodd">
        <g id="Exportable-Icon-assets" transform="translate(-43.000000, -90.000000)" fill="#31353B">
            <g id="Group" transform="translate(43.000000, 90.000000)">
                <polygon id="Path" points="10.2 10.405 11.3692506 15.8043158 12.3666667 13.9270068 14.5087855 16.405 15.2 15.6975884 13.1147287 13.1019213 14.8757106 12.5587058"></polygon>
                <path d="M8.60469623,15.4143165 C8.47470769,14.5885363 8.27049499,13.9026805 7.99582711,13.3502773 L7.1004077,13.7955009 C7.32644247,14.2500948 7.50185629,14.8392285 7.61686006,15.5698148 L8.60469623,15.4143165 Z M7.29764741,12.3667106 C6.61259622,11.7026519 5.74655903,11.5239996 4.88455022,11.7495846 L5.13772146,12.7170061 C5.67903807,12.5753452 6.18348777,12.6794067 6.60162761,13.0847332 L7.29764741,12.3667106 Z M3.82559844,12.2641296 C3.65960874,12.3923888 3.52207276,12.5317906 3.4254784,12.6743887 C2.85287614,13.6128616 3.32957519,14.6618343 4.34571962,14.8301636 L4.50914734,13.8436083 C4.1936789,13.7913494 4.07470921,13.5295575 4.26640508,13.2150038 C4.28526094,13.1881976 4.34960895,13.1229766 4.43702912,13.0554276 L3.82559844,12.2641296 Z M5.56778611,14.6120869 C6.30301172,14.2396221 6.80940407,13.5053613 7.04436396,12.7291492 L6.08725202,12.4394308 C5.92432154,12.977687 5.57157206,13.4891681 5.11586915,13.7200269 L5.56778611,14.6120869 Z" id="Path-6" fill-rule="nonzero" transform="translate(5.892138, 13.613338) rotate(-4.000000) translate(-5.892138, -13.613338) "></path>
                <path d="M10.0605191,3.36589143 L9.93590555,4.35809678 C9.62890719,4.31954009 9.31620753,4.3 9,4.3 L9,3.3 C9.35784652,3.3 9.71216526,3.3221408 10.0605191,3.36589143 Z M12.1249022,3.91166914 L11.7371299,4.83342438 C11.4565141,4.71537238 11.1620642,4.61556817 10.8568365,4.53539556 L11.1108839,3.56820378 C11.4614651,3.66028918 11.8006077,3.77524205 12.1249022,3.91166914 Z M13.9929619,5.09206641 L13.3156276,5.8277418 C13.0990117,5.62830413 12.8566669,5.44371547 12.592043,5.27686695 L13.1253907,4.43097082 C13.4405852,4.62970472 13.7311787,4.85104332 13.9929619,5.09206641 Z M15.251818,6.92264373 L14.313764,7.26913289 C14.2154443,7.0029508 14.0789304,6.74471538 13.9063988,6.49819572 L14.725681,5.9248052 C14.9466068,6.24047237 15.1233087,6.57472903 15.251818,6.92264373 Z M15.3582546,9.3466008 L14.3940697,9.0813697 C14.4469772,8.88903698 14.4801082,8.69401819 14.4933632,8.49392623 L14.4990619,8.22567964 L15.4987428,8.20041973 L15.4999875,8.29068792 C15.5000016,8.65344539 15.4525312,9.00388046 15.3582546,9.3466008 Z M13.5005005,10.5919805 C13.7138123,10.3714483 13.8957675,10.1364966 14.0435154,9.89087548 L14.9004302,10.4063335 C14.7807376,10.6053146 14.613702,10.8337517 14.4617365,11.0180369 C14.4617365,11.0180369 14.1413245,10.8760181 13.5005005,10.5919805 Z M8.10404266,13.2531208 L8.2089792,12.2586419 C8.38326266,12.2770321 8.55876545,12.2892833 8.7376872,12.2954059 L9.15470031,12.2984374 L9.17492258,13.2982329 L9.00949879,13.2999945 C8.6996889,13.2999945 8.4004887,13.2844015 8.10404266,13.2531208 Z M6.03040806,12.7515789 L6.39696083,11.8211817 C6.68072998,11.9329795 6.97757936,12.0263975 7.28451426,12.1001416 L7.05090281,13.0724716 C6.6989448,12.9879103 6.35766847,12.8805112 6.03040806,12.7515789 Z M4.13985891,11.6264005 L4.7937206,10.8697864 C5.01721899,11.0629324 5.26538151,11.2408232 5.53474406,11.4007014 L5.02433706,12.2606344 C4.70482616,12.070991 4.40861112,11.8586546 4.13985891,11.6264005 Z M2.81543894,9.84778468 L3.73736009,9.4604071 C3.84744266,9.72239297 3.9949087,9.9758282 4.17742077,10.2169031 L3.38013693,10.8205077 C3.14801241,10.5139011 2.95842258,10.1880719 2.81543894,9.84778468 Z M2.59814427,7.42698872 L3.57323997,7.64877323 C3.52399363,7.86528923 3.50001563,8.08300504 3.50008935,8.3229507 C3.50060754,8.38948131 3.50337894,8.4557806 3.50838783,8.52181926 L2.51125194,8.59744999 C2.50453152,8.50884619 2.50081429,8.41991983 2.50010424,8.32702728 C2.49998867,8.00926365 2.53217269,7.71703875 2.59814427,7.42698872 Z M3.65940529,5.44249145 L4.40121631,6.11310044 C4.19623093,6.33985018 4.02371868,6.58045805 3.88639351,6.83112651 L3.00937735,6.35066562 C3.18485127,6.03036181 3.40294033,5.72618663 3.65940529,5.44249145 Z M5.47421674,4.09502054 L5.91830044,4.99100585 C5.63675773,5.13054891 5.37342482,5.28876216 5.13175061,5.46327387 L4.5463279,4.65254565 C4.83317259,4.44541656 5.1438083,4.25878327 5.47421674,4.09502054 Z M7.49334028,3.43432784 L7.67205158,4.4182294 C7.36132912,4.47466758 7.05892732,4.55083853 6.76766331,4.6456711 L6.4580701,3.694802 C6.79231711,3.58597461 7.13844888,3.49878867 7.49334028,3.43432784 Z M8.98065914,3.30002156 L8.98288926,4.30002156 C8.88539166,4.30023651 8.78821256,4.3023123 8.6914134,4.30623345 L8.65093853,3.30705289 C8.76047982,3.30261559 8.87040951,3.30026743 8.98065914,3.30002156 Z" id="Oval" fill-rule="nonzero"></path>
            </g>
        </g>
    </g>
</svg>