<?xml version="1.0" encoding="UTF-8"?>
<svg width="18px" height="18px" viewBox="0 0 18 18" version="1.1" xmlns="http://www.w3.org/2000/svg" xmlns:xlink="http://www.w3.org/1999/xlink">
    <title>icon / sgroup</title>
    <g id="Details" stroke="none" stroke-width="1" fill="none" fill-rule="evenodd">
        <g id="Exportable-Icon-assets" transform="translate(-43.000000, -439.000000)" fill="#31353B" fill-rule="nonzero">
            <g id="Combined-Shape" transform="translate(43.000000, 439.000000)">
                <path d="M15.3156364,11.352 C15.7689697,11.352 16.126303,11.4693333 16.3876364,11.704 C16.6489697,11.9386667 16.7796364,12.2906667 16.7796364,12.76 L16.7796364,12.76 L16.7796364,15.6 L15.8676364,15.6 L15.8676364,13 L15.8574141,12.8447778 C15.832229,12.5984815 15.766303,12.4142222 15.6596364,12.292 C15.5316364,12.1453333 15.3316364,12.072 15.0596364,12.072 C14.9049697,12.072 14.766303,12.1 14.6436364,12.156 C14.5209697,12.212 14.4169697,12.2893333 14.3316364,12.388 C14.246303,12.4866667 14.1796364,12.6026667 14.1316364,12.736 C14.0836364,12.8693333 14.0596364,13.0106667 14.0596364,13.16 L14.0596364,13.16 L14.0596364,15.6 L13.1476364,15.6 L13.1476364,11.464 L14.0116364,11.464 L14.0116364,12.072 L14.0276364,12.088 L14.1159564,11.95632 C14.240543,11.78864 14.3924364,11.6525333 14.5716364,11.548 C14.7956364,11.4173333 15.0436364,11.352 15.3156364,11.352 Z M5.00272727,3.497 L5.00272727,4.667 L3.50772727,4.667 L3.50772727,14.313 L5.00272727,14.313 L5.00272727,15.483 L2.10372727,15.483 L2.10372727,3.497 L5.00272727,3.497 Z M11.7780909,3.497 L11.7780909,15.483 L8.87909091,15.483 L8.87909091,14.313 L10.3740909,14.313 L10.3740909,4.667 L8.87909091,4.667 L8.87909091,3.497 L11.7780909,3.497 Z"></path>
            </g>
        </g>
    </g>
</svg>