<?xml version="1.0" encoding="UTF-8"?>
<svg width="18px" height="18px" viewBox="0 0 18 18" version="1.1" xmlns="http://www.w3.org/2000/svg" xmlns:xlink="http://www.w3.org/1999/xlink">
    <title>icon / template-c</title>
    <g id="Details" stroke="none" stroke-width="1" fill="none" fill-rule="evenodd">
        <g id="Exportable-Icon-assets" transform="translate(-606.000000, -227.000000)" fill="#31353B" fill-rule="nonzero">
            <g id="Path" transform="translate(606.000000, 227.000000)">
                <path d="M8.982494,4.05572987 L7.16585859,3 L4.77299894,4.42746869 L4.78360671,6.52934568 L3,7.58319086 L3,10.4105558 L4.79523261,11.467683 L4.79347781,13.5835895 L7.19274047,15 L9.00283933,13.9363575 L10.8180374,14.9967454 L13.2147043,13.574843 L13.2065707,11.4706477 L14.9950891,10.4247976 L15,7.59569613 L13.1959137,6.52736916 L13.1954338,4.40053804 L10.9245122,3.06450468 L10.6615126,3.06450468 L8.982494,4.05572987 Z M10.781244,4 L12.2062392,4.86625368 L12.2080682,7.0513195 L14,8.14847162 L13.9961487,9.88199452 L12.2164507,10.9599846 L12.2235702,13.1235909 L10.8033892,13.9959378 L9.00266437,12.9089876 L7.2043135,14 L5.78220682,13.1317152 L5.7850781,10.9570348 L4,9.86879253 L4,8.13526963 L5.77684008,7.05306442 L5.76487579,4.88859551 L7.18313114,4.01320199 L8.98602317,5.09775988 L10.781244,4 Z"></path>
            </g>
        </g>
    </g>
</svg>