<?xml version="1.0" encoding="UTF-8"?>
<svg width="18px" height="18px" viewBox="0 0 18 18" version="1.1" xmlns="http://www.w3.org/2000/svg" xmlns:xlink="http://www.w3.org/1999/xlink">
    <title>icon / template-0</title>
    <g id="Details" stroke="none" stroke-width="1" fill="none" fill-rule="evenodd">
        <g id="Exportable-Icon-assets" transform="translate(-606.000000, -274.000000)" fill="#31353B">
            <g id="Combined-Shape" transform="translate(606.000000, 274.000000)">
                <path d="M9.12561834,2.42364921 L14.860177,5.64545676 L14.860177,12.224698 L9.13579422,15.5764068 L3.4,12.3533381 L3.4,5.77403359 L9.12561834,2.42364921 Z M9.136,3.576 L4.4,6.347 L4.4,11.768 L9.125,14.423 L13.86,11.651 L13.86,6.23 L9.136,3.576 Z M5.98720694,10.5566124 L9.43994449,12.574182 L9.07438642,13.1967993 L5.62164887,11.1792298 L5.98720694,10.5566124 Z M12.046,7 L12.768,7.00102669 L12.754,11 L12.032,10.9989733 L12.046,7 Z M9.07438642,4.85661244 L9.43994449,5.47922978 L5.98720694,7.49679934 L5.62164887,6.87418199 L9.07438642,4.85661244 Z"></path>
            </g>
        </g>
    </g>
</svg>