<?xml version="1.0" encoding="UTF-8"?>
<svg width="18px" height="18px" viewBox="0 0 18 18" version="1.1" xmlns="http://www.w3.org/2000/svg" xmlns:xlink="http://www.w3.org/1999/xlink">
    <title>icon / template-b</title>
    <g id="Details" stroke="none" stroke-width="1" fill="none" fill-rule="evenodd">
        <g id="Exportable-Icon-assets" transform="translate(-606.000000, -207.000000)" fill="#31353B" fill-rule="nonzero">
            <g id="Path" transform="translate(606.000000, 207.000000)">
                <path d="M8.91603254,3.93497732 L6.77007377,3 L4.31714123,4.81010383 L4.5830401,7.18875565 L3,8.98471696 L3.96996027,11.8755041 L6.28681259,12.3437353 L7.46910935,14.3911098 L10.5189395,14.3911098 L11.752173,12.2545126 L14.1484195,11.6659697 L15,8.73699092 L13.3553328,7.0226497 L13.5434061,4.65799006 L11.1359933,3.00098728 L10.9853185,3.00098728 L10.7811927,3.0471287 L8.91603254,3.93497732 Z M10.9434743,4.02040324 L12.5532783,5.12809266 L12.3759796,7.37412053 L13.9343307,8.99788678 L13.3895032,10.8744095 L11.1328814,11.4302067 L9.97056805,13.4419329 L8.01716204,13.4419329 L6.89528188,11.4994298 L4.69504297,11.0528547 L4.07428129,9.20101063 L5.57443286,7.50156419 L5.32055053,5.24863812 L6.89238744,4.0877948 L8.93386101,4.97865442 L10.9434743,4.02040324 Z"></path>
            </g>
        </g>
    </g>
</svg>