<?xml version="1.0" encoding="UTF-8"?>
<svg width="18px" height="18px" viewBox="0 0 18 18" version="1.1" xmlns="http://www.w3.org/2000/svg" xmlns:xlink="http://www.w3.org/1999/xlink">
    <title>icon / templates</title>
    <g id="Details" stroke="none" stroke-width="1" fill="none" fill-rule="evenodd">
        <g id="Exportable-Icon-assets" transform="translate(-606.000000, -314.000000)" fill="#31353B" fill-rule="nonzero">
            <g id="Combined-Shape" transform="translate(606.000000, 314.000000)">
                <path d="M3.03803318,3.04948279 L8.2210347,3.06319146 L10.6305718,7.05048279 L15.1492379,7.06319146 L17.8093992,11.4647263 L15.2669693,15.8683441 L10.0842832,15.8560035 L7.67357178,11.8654828 L3.15608001,11.8560035 L0.495571778,7.45315511 L3.03803318,3.04948279 Z M10.5426365,8.05043629 L8.58513654,11.4409257 L10.6488953,14.8563907 L14.6903144,14.8664476 L16.6483144,11.4750921 L14.5835556,8.06135921 L10.5426365,8.05043629 Z M11.0975009,13.5233819 L14.0967308,13.5373819 L14.0959608,14.2593819 L11.0967308,14.2453819 L11.0975009,13.5233819 Z M14.3193182,8.82256136 L15.8760362,11.3861927 L15.257558,11.7587102 L13.70084,9.19507888 L14.3193182,8.82256136 Z M3.61510931,4.04967188 L1.65710931,7.44102736 L3.7208681,10.8564923 L7.76228714,10.8665492 L9.71978714,7.47605972 L7.65552835,4.06146082 L3.61510931,4.04967188 Z M4.16929764,9.52338194 L7.16852762,9.53738194 L7.1677576,10.2593819 L4.16852762,10.2453819 L4.16929764,9.52338194 Z M7.39111498,4.82256136 L8.94783295,7.38619269 L8.32935475,7.75871022 L6.77263677,5.19507888 L7.39111498,4.82256136 Z M3.96650636,4.73329303 L4.59139169,5.09495989 L3.07965234,7.68536924 L2.45476701,7.32370238 L3.96650636,4.73329303 Z"></path>
            </g>
        </g>
    </g>
</svg>