<?xml version="1.0" encoding="UTF-8"?>
<svg width="18px" height="18px" viewBox="0 0 18 18" version="1.1" xmlns="http://www.w3.org/2000/svg" xmlns:xlink="http://www.w3.org/1999/xlink">
    <title>icon / transform-flip-v</title>
    <g id="Details" stroke="none" stroke-width="1" fill="none" fill-rule="evenodd">
        <g id="Exportable-Icon-assets" transform="translate(-43.000000, -249.000000)" fill="#31353B">
            <g id="Combined-Shape" transform="translate(43.000000, 249.000000)">
                <path d="M9,11.3333333 L12.3333333,16.3333333 L5.66666667,16.3333333 L9,11.3333333 Z M14.5,8.83333333 L14.5,9.83333333 L13.5,9.83333333 L13.5,8.83333333 L14.5,8.83333333 Z M12.5,8.83333333 L12.5,9.83333333 L11.5,9.83333333 L11.5,8.83333333 L12.5,8.83333333 Z M10.5,8.83333333 L10.5,9.83333333 L9.5,9.83333333 L9.5,8.83333333 L10.5,8.83333333 Z M8.5,8.83333333 L8.5,9.83333333 L7.5,9.83333333 L7.5,8.83333333 L8.5,8.83333333 Z M6.5,8.83333333 L6.5,9.83333333 L5.5,9.83333333 L5.5,8.83333333 L6.5,8.83333333 Z M4.5,8.83333333 L4.5,9.83333333 L3.5,9.83333333 L3.5,8.83333333 L4.5,8.83333333 Z M12.3333333,2.33333333 L9,7.33333333 L5.66666667,2.33333333 L12.3333333,2.33333333 Z M10.465,3.33366667 L7.536,3.33366667 L9,5.52966667 L10.465,3.33366667 Z"></path>
            </g>
        </g>
    </g>
</svg>