<?xml version="1.0" encoding="UTF-8"?>
<svg width="18px" height="18px" viewBox="0 0 18 18" version="1.1" xmlns="http://www.w3.org/2000/svg" xmlns:xlink="http://www.w3.org/1999/xlink">
    <title>icon / transform-flip-h</title>
    <g id="Details" stroke="none" stroke-width="1" fill="none" fill-rule="evenodd">
        <g id="Exportable-Icon-assets" transform="translate(-43.000000, -273.000000)" fill="#31353B">
            <g id="Combined-Shape" transform="translate(43.000000, 273.000000)">
                <path d="M9.5,13.5 L9.5,14.5 L8.5,14.5 L8.5,13.5 L9.5,13.5 Z M9.5,11.5 L9.5,12.5 L8.5,12.5 L8.5,11.5 L9.5,11.5 Z M16,5.66666667 L16,12.3333333 L11,9 L16,5.66666667 Z M2,5.66666667 L7,9 L2,12.3333333 L2,5.66666667 Z M9.5,9.5 L9.5,10.5 L8.5,10.5 L8.5,9.5 L9.5,9.5 Z M3,7.53533333 L3,10.4653333 L5.198,9.00033333 L3,7.53533333 Z M9.5,7.5 L9.5,8.5 L8.5,8.5 L8.5,7.5 L9.5,7.5 Z M9.5,5.5 L9.5,6.5 L8.5,6.5 L8.5,5.5 L9.5,5.5 Z M9.5,3.5 L9.5,4.5 L8.5,4.5 L8.5,3.5 L9.5,3.5 Z"></path>
            </g>
        </g>
    </g>
</svg>