<?xml version="1.0" encoding="UTF-8"?>
<svg width="18px" height="18px" viewBox="0 0 18 18" version="1.1" xmlns="http://www.w3.org/2000/svg" xmlns:xlink="http://www.w3.org/1999/xlink">
    <title>icon / transform-rotate</title>
    <g id="Details" stroke="none" stroke-width="1" fill="none" fill-rule="evenodd">
        <g id="Exportable-Icon-assets" transform="translate(-43.000000, -228.000000)" fill="#31353B" fill-rule="nonzero">
            <g id="Combined-Shape" transform="translate(43.000000, 228.000000)">
                <path d="M10.1645888,4.10350067 C12.4544765,4.67443381 13.9782762,6.73944473 13.9559169,9.0002776 L15.5,9 L13.5,12 L11.5,9 L12.9556337,8.99992316 C12.9775262,7.1878548 11.7575157,5.53127559 9.92266688,5.07379639 C7.77914875,4.5393573 5.60823549,5.84377359 5.07379639,7.98729172 C4.5393573,10.1308098 5.84377359,12.3017231 7.98729172,12.8361622 C9.0154443,13.0925094 10.0782167,12.9312154 10.9708278,12.4099309 L11.1594224,12.292738 L11.7102832,13.1273352 C10.5498358,13.8932674 9.12143632,14.1495498 7.74536982,13.8064579 C5.06597216,13.1384091 3.4354518,10.4247675 4.10350067,7.74536982 C4.77154953,5.06597216 7.48519111,3.4354518 10.1645888,4.10350067 Z"></path>
            </g>
        </g>
    </g>
</svg>